<mxfile host="app.diagrams.net" modified="2023-07-22T17:46:02.790Z" agent="Mozilla/5.0 (Windows NT 10.0; Win64; x64) AppleWebKit/537.36 (KHTML, like Gecko) Chrome/114.0.0.0 Safari/537.36" etag="rcPO1gFwijUAAYQzqD06" version="21.6.5" type="github">
  <diagram name="Page-1" id="9HRWg_nKx9RJw2YP3a8P">
    <mxGraphModel dx="2266" dy="837" grid="1" gridSize="10" guides="1" tooltips="1" connect="1" arrows="1" fold="1" page="1" pageScale="1" pageWidth="850" pageHeight="1100" math="0" shadow="0">
      <root>
        <mxCell id="0" />
        <mxCell id="1" parent="0" />
        <mxCell id="OMEROkEiJDGjKePTu1JV-1" value="Client&lt;br&gt;Win/Mac/IOS" style="rounded=1;whiteSpace=wrap;html=1;" vertex="1" parent="1">
          <mxGeometry x="120" y="110" width="560" height="60" as="geometry" />
        </mxCell>
        <mxCell id="OMEROkEiJDGjKePTu1JV-2" value="" style="endArrow=classic;html=1;rounded=0;exitX=0.109;exitY=1.037;exitDx=0;exitDy=0;exitPerimeter=0;" edge="1" parent="1" source="OMEROkEiJDGjKePTu1JV-1">
          <mxGeometry width="50" height="50" relative="1" as="geometry">
            <mxPoint x="125" y="360" as="sourcePoint" />
            <mxPoint x="180" y="220" as="targetPoint" />
          </mxGeometry>
        </mxCell>
        <mxCell id="OMEROkEiJDGjKePTu1JV-3" value="upload" style="edgeLabel;html=1;align=center;verticalAlign=middle;resizable=0;points=[];" vertex="1" connectable="0" parent="OMEROkEiJDGjKePTu1JV-2">
          <mxGeometry x="-0.4166" y="-1" relative="1" as="geometry">
            <mxPoint as="offset" />
          </mxGeometry>
        </mxCell>
        <mxCell id="OMEROkEiJDGjKePTu1JV-4" value="API Gateway" style="rounded=1;whiteSpace=wrap;html=1;" vertex="1" parent="1">
          <mxGeometry x="125" y="220" width="120" height="60" as="geometry" />
        </mxCell>
        <mxCell id="OMEROkEiJDGjKePTu1JV-5" value="" style="endArrow=classic;html=1;rounded=0;exitX=0.832;exitY=0.983;exitDx=0;exitDy=0;exitPerimeter=0;entryX=0.5;entryY=0;entryDx=0;entryDy=0;" edge="1" parent="1" target="OMEROkEiJDGjKePTu1JV-8">
          <mxGeometry width="50" height="50" relative="1" as="geometry">
            <mxPoint x="459.52" y="170.00000000000003" as="sourcePoint" />
            <mxPoint x="435" y="221.01999999999998" as="targetPoint" />
          </mxGeometry>
        </mxCell>
        <mxCell id="OMEROkEiJDGjKePTu1JV-6" value="download" style="edgeLabel;html=1;align=center;verticalAlign=middle;resizable=0;points=[];" vertex="1" connectable="0" parent="OMEROkEiJDGjKePTu1JV-5">
          <mxGeometry x="-0.2391" y="2" relative="1" as="geometry">
            <mxPoint as="offset" />
          </mxGeometry>
        </mxCell>
        <mxCell id="OMEROkEiJDGjKePTu1JV-7" value="" style="edgeStyle=orthogonalEdgeStyle;rounded=0;orthogonalLoop=1;jettySize=auto;html=1;" edge="1" parent="1" source="OMEROkEiJDGjKePTu1JV-8" target="OMEROkEiJDGjKePTu1JV-21">
          <mxGeometry relative="1" as="geometry" />
        </mxCell>
        <mxCell id="OMEROkEiJDGjKePTu1JV-8" value="API Gateway" style="rounded=1;whiteSpace=wrap;html=1;" vertex="1" parent="1">
          <mxGeometry x="400" y="219.99999999999997" width="120" height="60" as="geometry" />
        </mxCell>
        <mxCell id="OMEROkEiJDGjKePTu1JV-9" value="Assemble" style="rounded=1;whiteSpace=wrap;html=1;" vertex="1" parent="1">
          <mxGeometry x="560" y="340" width="120" height="60" as="geometry" />
        </mxCell>
        <mxCell id="OMEROkEiJDGjKePTu1JV-10" value="" style="rounded=1;whiteSpace=wrap;html=1;" vertex="1" parent="1">
          <mxGeometry x="120" y="530" width="400" height="140" as="geometry" />
        </mxCell>
        <mxCell id="OMEROkEiJDGjKePTu1JV-11" value="Metadata DB" style="shape=cylinder3;whiteSpace=wrap;html=1;boundedLbl=1;backgroundOutline=1;size=15;" vertex="1" parent="1">
          <mxGeometry x="425" y="600" width="60" height="60" as="geometry" />
        </mxCell>
        <mxCell id="OMEROkEiJDGjKePTu1JV-12" value="CDN" style="ellipse;shape=cloud;whiteSpace=wrap;html=1;" vertex="1" parent="1">
          <mxGeometry x="125" y="540" width="175" height="120" as="geometry" />
        </mxCell>
        <mxCell id="OMEROkEiJDGjKePTu1JV-13" value="" style="endArrow=classic;html=1;rounded=0;exitX=0.5;exitY=1;exitDx=0;exitDy=0;entryX=0.165;entryY=0.004;entryDx=0;entryDy=0;entryPerimeter=0;" edge="1" parent="1" target="OMEROkEiJDGjKePTu1JV-10">
          <mxGeometry width="50" height="50" relative="1" as="geometry">
            <mxPoint x="185" y="510" as="sourcePoint" />
            <mxPoint x="40" y="450" as="targetPoint" />
          </mxGeometry>
        </mxCell>
        <mxCell id="OMEROkEiJDGjKePTu1JV-14" value="Long term storage" style="rounded=1;whiteSpace=wrap;html=1;" vertex="1" parent="1">
          <mxGeometry x="120" y="720" width="400" height="60" as="geometry" />
        </mxCell>
        <mxCell id="OMEROkEiJDGjKePTu1JV-15" value="" style="endArrow=classic;html=1;rounded=0;exitX=0.197;exitY=1.001;exitDx=0;exitDy=0;exitPerimeter=0;entryX=0.197;entryY=0.003;entryDx=0;entryDy=0;entryPerimeter=0;" edge="1" parent="1" source="OMEROkEiJDGjKePTu1JV-10" target="OMEROkEiJDGjKePTu1JV-14">
          <mxGeometry width="50" height="50" relative="1" as="geometry">
            <mxPoint x="160" y="690" as="sourcePoint" />
            <mxPoint x="199" y="690" as="targetPoint" />
          </mxGeometry>
        </mxCell>
        <mxCell id="OMEROkEiJDGjKePTu1JV-16" value="Notification Service" style="rounded=1;whiteSpace=wrap;html=1;" vertex="1" parent="1">
          <mxGeometry x="285" y="460" width="70" height="50" as="geometry" />
        </mxCell>
        <mxCell id="OMEROkEiJDGjKePTu1JV-17" value="" style="endArrow=classic;html=1;rounded=0;exitX=1;exitY=0.5;exitDx=0;exitDy=0;entryX=0;entryY=0.5;entryDx=0;entryDy=0;" edge="1" parent="1" target="OMEROkEiJDGjKePTu1JV-16">
          <mxGeometry width="50" height="50" relative="1" as="geometry">
            <mxPoint x="245" y="485" as="sourcePoint" />
            <mxPoint x="360" y="350" as="targetPoint" />
          </mxGeometry>
        </mxCell>
        <mxCell id="OMEROkEiJDGjKePTu1JV-18" value="" style="endArrow=classic;html=1;rounded=0;exitX=0.5;exitY=1;exitDx=0;exitDy=0;" edge="1" parent="1" source="OMEROkEiJDGjKePTu1JV-4">
          <mxGeometry width="50" height="50" relative="1" as="geometry">
            <mxPoint x="260" y="290" as="sourcePoint" />
            <mxPoint x="185" y="300" as="targetPoint" />
          </mxGeometry>
        </mxCell>
        <mxCell id="OMEROkEiJDGjKePTu1JV-19" value="De-compression&lt;br&gt;Decryption" style="rounded=1;whiteSpace=wrap;html=1;" vertex="1" parent="1">
          <mxGeometry x="560" y="220" width="120" height="60" as="geometry" />
        </mxCell>
        <mxCell id="OMEROkEiJDGjKePTu1JV-20" value="" style="endArrow=classic;html=1;rounded=0;entryX=0.5;entryY=0;entryDx=0;entryDy=0;" edge="1" parent="1" target="OMEROkEiJDGjKePTu1JV-21">
          <mxGeometry width="50" height="50" relative="1" as="geometry">
            <mxPoint x="460" y="300" as="sourcePoint" />
            <mxPoint x="463" y="410" as="targetPoint" />
          </mxGeometry>
        </mxCell>
        <mxCell id="OMEROkEiJDGjKePTu1JV-21" value="Storage Service" style="rounded=1;whiteSpace=wrap;html=1;" vertex="1" parent="1">
          <mxGeometry x="400" y="340" width="120" height="60" as="geometry" />
        </mxCell>
        <mxCell id="OMEROkEiJDGjKePTu1JV-22" value="" style="endArrow=classic;html=1;rounded=0;entryX=0.354;entryY=1.05;entryDx=0;entryDy=0;exitX=0.5;exitY=0;exitDx=0;exitDy=0;entryPerimeter=0;" edge="1" parent="1" source="OMEROkEiJDGjKePTu1JV-16" target="OMEROkEiJDGjKePTu1JV-1">
          <mxGeometry width="50" height="50" relative="1" as="geometry">
            <mxPoint x="310" y="350" as="sourcePoint" />
            <mxPoint x="360" y="300" as="targetPoint" />
          </mxGeometry>
        </mxCell>
        <mxCell id="OMEROkEiJDGjKePTu1JV-23" value="" style="endArrow=classic;html=1;rounded=0;entryX=0.5;entryY=1;entryDx=0;entryDy=0;" edge="1" parent="1" target="OMEROkEiJDGjKePTu1JV-21">
          <mxGeometry width="50" height="50" relative="1" as="geometry">
            <mxPoint x="460" y="530" as="sourcePoint" />
            <mxPoint x="620" y="490" as="targetPoint" />
          </mxGeometry>
        </mxCell>
        <mxCell id="OMEROkEiJDGjKePTu1JV-24" value="" style="endArrow=classic;html=1;rounded=0;exitX=1;exitY=0.5;exitDx=0;exitDy=0;entryX=0;entryY=0.5;entryDx=0;entryDy=0;" edge="1" parent="1" source="OMEROkEiJDGjKePTu1JV-21" target="OMEROkEiJDGjKePTu1JV-9">
          <mxGeometry width="50" height="50" relative="1" as="geometry">
            <mxPoint x="680" y="550" as="sourcePoint" />
            <mxPoint x="730" y="500" as="targetPoint" />
          </mxGeometry>
        </mxCell>
        <mxCell id="OMEROkEiJDGjKePTu1JV-25" value="" style="endArrow=classic;html=1;rounded=0;exitX=0.5;exitY=0;exitDx=0;exitDy=0;entryX=0.5;entryY=1;entryDx=0;entryDy=0;" edge="1" parent="1" source="OMEROkEiJDGjKePTu1JV-9" target="OMEROkEiJDGjKePTu1JV-19">
          <mxGeometry width="50" height="50" relative="1" as="geometry">
            <mxPoint x="760" y="390" as="sourcePoint" />
            <mxPoint x="810" y="340" as="targetPoint" />
          </mxGeometry>
        </mxCell>
        <mxCell id="OMEROkEiJDGjKePTu1JV-26" value="" style="endArrow=classic;html=1;rounded=0;exitX=0.5;exitY=0;exitDx=0;exitDy=0;" edge="1" parent="1" source="OMEROkEiJDGjKePTu1JV-19">
          <mxGeometry width="50" height="50" relative="1" as="geometry">
            <mxPoint x="620" y="250" as="sourcePoint" />
            <mxPoint x="620" y="170" as="targetPoint" />
          </mxGeometry>
        </mxCell>
        <mxCell id="OMEROkEiJDGjKePTu1JV-27" value="Metadata Cache" style="rounded=1;whiteSpace=wrap;html=1;" vertex="1" parent="1">
          <mxGeometry x="415" y="545" width="80" height="40" as="geometry" />
        </mxCell>
        <mxCell id="OMEROkEiJDGjKePTu1JV-29" value="" style="endArrow=classic;html=1;rounded=0;entryX=0.5;entryY=0;entryDx=0;entryDy=0;" edge="1" parent="1" target="OMEROkEiJDGjKePTu1JV-30">
          <mxGeometry width="50" height="50" relative="1" as="geometry">
            <mxPoint x="185" y="380" as="sourcePoint" />
            <mxPoint x="185" y="450" as="targetPoint" />
          </mxGeometry>
        </mxCell>
        <mxCell id="OMEROkEiJDGjKePTu1JV-30" value="Transcoder&lt;br style=&quot;border-color: var(--border-color);&quot;&gt;format optimal for streaming&lt;br style=&quot;border-color: var(--border-color);&quot;&gt;Deduplication&lt;br&gt;Compression&lt;br&gt;Encryption" style="rounded=1;whiteSpace=wrap;html=1;" vertex="1" parent="1">
          <mxGeometry x="125" y="420" width="120" height="90" as="geometry" />
        </mxCell>
        <mxCell id="OMEROkEiJDGjKePTu1JV-31" value="PreProcessor" style="rounded=1;whiteSpace=wrap;html=1;" vertex="1" parent="1">
          <mxGeometry x="125" y="300" width="120" height="30" as="geometry" />
        </mxCell>
        <mxCell id="OMEROkEiJDGjKePTu1JV-32" value="Temp Storage" style="shape=cylinder3;whiteSpace=wrap;html=1;boundedLbl=1;backgroundOutline=1;size=15;" vertex="1" parent="1">
          <mxGeometry x="20" y="280" width="60" height="170" as="geometry" />
        </mxCell>
        <mxCell id="OMEROkEiJDGjKePTu1JV-33" value="" style="endArrow=classic;html=1;rounded=0;exitX=0;exitY=0.5;exitDx=0;exitDy=0;" edge="1" parent="1" source="OMEROkEiJDGjKePTu1JV-31">
          <mxGeometry width="50" height="50" relative="1" as="geometry">
            <mxPoint x="130" y="400" as="sourcePoint" />
            <mxPoint x="80" y="315" as="targetPoint" />
          </mxGeometry>
        </mxCell>
        <mxCell id="OMEROkEiJDGjKePTu1JV-34" value="Job Queue" style="rounded=1;whiteSpace=wrap;html=1;" vertex="1" parent="1">
          <mxGeometry x="125" y="350" width="120" height="30" as="geometry" />
        </mxCell>
        <mxCell id="OMEROkEiJDGjKePTu1JV-35" value="" style="endArrow=classic;html=1;rounded=0;exitX=0.5;exitY=1;exitDx=0;exitDy=0;entryX=0.5;entryY=0;entryDx=0;entryDy=0;" edge="1" parent="1" source="OMEROkEiJDGjKePTu1JV-31" target="OMEROkEiJDGjKePTu1JV-34">
          <mxGeometry width="50" height="50" relative="1" as="geometry">
            <mxPoint x="400" y="460" as="sourcePoint" />
            <mxPoint x="450" y="410" as="targetPoint" />
          </mxGeometry>
        </mxCell>
        <mxCell id="OMEROkEiJDGjKePTu1JV-36" value="" style="endArrow=classic;html=1;rounded=0;exitX=1;exitY=1;exitDx=0;exitDy=-15;exitPerimeter=0;entryX=0.002;entryY=0.18;entryDx=0;entryDy=0;entryPerimeter=0;" edge="1" parent="1" source="OMEROkEiJDGjKePTu1JV-32" target="OMEROkEiJDGjKePTu1JV-30">
          <mxGeometry width="50" height="50" relative="1" as="geometry">
            <mxPoint x="-280" y="430" as="sourcePoint" />
            <mxPoint x="-230" y="380" as="targetPoint" />
          </mxGeometry>
        </mxCell>
      </root>
    </mxGraphModel>
  </diagram>
</mxfile>
